<svg width="520" height="280" viewBox="0 0 520 280" fill="none" xmlns="http://www.w3.org/2000/svg">
  <defs>
    <linearGradient id="bg" x1="0" y1="0" x2="520" y2="280" gradientUnits="userSpaceOnUse">
      <stop stop-color="#EAF4FF"/>
      <stop offset="1" stop-color="#DCEEFF"/>
    </linearGradient>
  </defs>
  <rect width="520" height="280" rx="24" fill="url(#bg)"/>
  <ellipse cx="130" cy="230" rx="88" ry="18" fill="#93C5FD" fill-opacity="0.28"/>
  <ellipse cx="380" cy="228" rx="96" ry="20" fill="#93C5FD" fill-opacity="0.24"/>

  <rect x="52" y="70" width="188" height="126" rx="16" fill="white" fill-opacity="0.96"/>
  <rect x="70" y="88" width="78" height="10" rx="5" fill="#BFDBFE"/>
  <rect x="70" y="106" width="144" height="14" rx="7" fill="#2563EB"/>
  <rect x="70" y="128" width="96" height="10" rx="5" fill="#93C5FD"/>
  <rect x="70" y="154" width="66" height="24" rx="12" fill="#1D4ED8"/>

  <circle cx="342" cy="104" r="32" fill="#1E40AF"/>
  <rect x="308" y="138" width="68" height="74" rx="26" fill="#3B82F6"/>
  <rect x="398" y="122" width="72" height="104" rx="12" fill="white" fill-opacity="0.95"/>
  <rect x="408" y="134" width="52" height="66" rx="8" fill="#DBEAFE"/>
  <circle cx="434" cy="167" r="13" fill="#2563EB"/>
  <path d="M434 160V174M427 167H441" stroke="white" stroke-width="3" stroke-linecap="round"/>
</svg>