<svg width="160" height="160" viewBox="0 0 160 160" fill="none" xmlns="http://www.w3.org/2000/svg">
  <defs>
    <linearGradient id="bg" x1="18" y1="16" x2="142" y2="144" gradientUnits="userSpaceOnUse">
      <stop stop-color="#0F172A"/>
      <stop offset="1" stop-color="#1D4ED8"/>
    </linearGradient>
    <linearGradient id="linkLeft" x1="38" y1="46" x2="84" y2="96" gradientUnits="userSpaceOnUse">
      <stop stop-color="#E0F2FE"/>
      <stop offset="1" stop-color="#7DD3FC"/>
    </linearGradient>
    <linearGradient id="linkRight" x1="76" y1="62" x2="124" y2="112" gradientUnits="userSpaceOnUse">
      <stop stop-color="#BAE6FD"/>
      <stop offset="1" stop-color="#38BDF8"/>
    </linearGradient>
  </defs>

  <rect x="12" y="12" width="136" height="136" rx="34" fill="url(#bg)"/>
  <rect x="20" y="20" width="120" height="120" rx="28" stroke="white" stroke-opacity="0.12" stroke-width="2"/>

  <rect x="36" y="52" width="50" height="36" rx="18" stroke="url(#linkLeft)" stroke-width="10"/>
  <rect x="74" y="72" width="50" height="36" rx="18" stroke="url(#linkRight)" stroke-width="10"/>

  <path d="M92 48H112" stroke="#F8FAFC" stroke-width="5" stroke-linecap="round"/>
  <path d="M92 58H108" stroke="#F8FAFC" stroke-width="5" stroke-linecap="round"/>
  <path d="M94 44V78C94 86 88 92 80 92H66" stroke="#F8FAFC" stroke-width="6" stroke-linecap="round" stroke-linejoin="round"/>

  <circle cx="46" cy="116" r="7" fill="#7DD3FC"/>
  <circle cx="80" cy="122" r="6" fill="#E0F2FE"/>
  <circle cx="114" cy="116" r="7" fill="#38BDF8"/>
  <path d="M53 116H72" stroke="#93C5FD" stroke-width="4" stroke-linecap="round" opacity="0.9"/>
  <path d="M88 120H107" stroke="#93C5FD" stroke-width="4" stroke-linecap="round" opacity="0.9"/>
</svg>